<svg width="32" height="32" viewBox="0 0 32 32" fill="none" xmlns="http://www.w3.org/2000/svg">
<path fill-rule="evenodd" clip-rule="evenodd" d="M29.4388 9.9887C29.4388 11.4009 28.2899 12.5499 26.8776 12.5499H22.0113C20.5991 12.5499 19.4501 11.4009 19.4501 9.9887V5.12241C19.4501 3.71016 20.5991 2.56121 22.0113 2.56121H26.8776C28.2899 2.56121 29.4388 3.71016 29.4388 5.12241V9.9887ZM26.8776 0H22.0113C19.1868 0 16.8889 2.29791 16.8889 5.12241V9.9887C16.8889 12.8132 19.1868 15.1111 22.0113 15.1111H26.8776C29.7021 15.1111 32 12.8132 32 9.9887V5.12241C32 2.29791 29.7021 0 26.8776 0Z" fill="black"/>
<path fill-rule="evenodd" clip-rule="evenodd" d="M12.5499 9.9887C12.5499 11.4009 11.4009 12.5499 9.9887 12.5499H5.12241C3.71016 12.5499 2.56121 11.4009 2.56121 9.9887V5.12241C2.56121 3.71016 3.71016 2.56121 5.12241 2.56121H9.9887C11.4009 2.56121 12.5499 3.71016 12.5499 5.12241V9.9887ZM9.9887 0H5.12241C2.29791 0 0 2.29791 0 5.12241V9.9887C0 12.8132 2.29791 15.1111 5.12241 15.1111H9.9887C12.8132 15.1111 15.1111 12.8132 15.1111 9.9887V5.12241C15.1111 2.29791 12.8132 0 9.9887 0Z" fill="black"/>
<path fill-rule="evenodd" clip-rule="evenodd" d="M12.5499 26.8776C12.5499 28.2898 11.4009 29.4388 9.9887 29.4388H5.12241C3.71016 29.4388 2.56121 28.2898 2.56121 26.8776V22.0113C2.56121 20.5991 3.71016 19.4501 5.12241 19.4501H9.9887C11.4009 19.4501 12.5499 20.5991 12.5499 22.0113V26.8776ZM9.9887 16.8889H5.12241C2.29791 16.8889 0 19.1868 0 22.0113V26.8776C0 29.7021 2.29791 32 5.12241 32H9.9887C12.8132 32 15.1111 29.7021 15.1111 26.8776V22.0113C15.1111 19.1868 12.8132 16.8889 9.9887 16.8889Z" fill="black"/>
<path fill-rule="evenodd" clip-rule="evenodd" d="M30.7194 25.597C30.0121 25.597 29.4388 26.1703 29.4388 26.8776C29.4388 28.2898 28.2899 29.4388 26.8776 29.4388H22.0113C20.5991 29.4388 19.4501 28.2898 19.4501 26.8776V22.0113C19.4501 20.5991 20.5991 19.4501 22.0113 19.4501H26.8776C27.896 19.4501 28.8178 20.0532 29.2259 20.9866C29.5093 21.6346 30.2644 21.9301 30.9123 21.6468C31.5604 21.3634 31.856 20.6084 31.5726 19.9604C30.7567 18.0945 28.9138 16.8889 26.8776 16.8889H22.0113C19.1868 16.8889 16.8889 19.1868 16.8889 22.0113V26.8776C16.8889 29.7021 19.1868 32 22.0113 32H26.8776C29.7021 32 32 29.7021 32 26.8776C32 26.1703 31.4267 25.597 30.7194 25.597Z" fill="black"/>
</svg>
