<svg width="32" height="32" viewBox="0 0 32 32" fill="none" xmlns="http://www.w3.org/2000/svg">
<mask id="mask0" mask-type="alpha" maskUnits="userSpaceOnUse" x="0" y="0" width="32" height="32">
<path fill-rule="evenodd" clip-rule="evenodd" d="M0 0H32V32H0V0Z" fill="white"/>
</mask>
<g mask="url(#mask0)">
<path fill-rule="evenodd" clip-rule="evenodd" d="M12.6667 22.6667C7.15239 22.6667 2.66669 18.181 2.66669 12.6667C2.66669 7.15239 7.15239 2.66669 12.6667 2.66669C18.181 2.66669 22.6667 7.15239 22.6667 12.6667C22.6667 18.181 18.181 22.6667 12.6667 22.6667ZM31.8047 29.9193L22.5089 20.6236C24.2721 18.4469 25.3334 15.6796 25.3334 12.6667C25.3334 5.68233 19.6511 0 12.6667 0C5.68227 0 0 5.68233 0 12.6667C0 19.6511 5.68233 25.3334 12.6667 25.3334C15.6796 25.3334 18.4469 24.2721 20.6236 22.509L29.9193 31.8048C30.1798 32.0651 30.6018 32.0651 30.8622 31.8048L31.8048 30.8621C32.0651 30.6018 32.0651 30.1796 31.8047 29.9193Z" fill="black"/>
</g>
</svg>
