<svg width="32" height="32" viewBox="0 0 32 32" fill="none" xmlns="http://www.w3.org/2000/svg">
<path fill-rule="evenodd" clip-rule="evenodd" d="M22.6667 29.1429C21.564 29.1429 20.6667 28.1815 20.6667 27C20.6667 25.8186 21.564 24.8572 22.6667 24.8572C23.7694 24.8572 24.6667 25.8186 24.6667 27C24.6667 28.1815 23.7694 29.1429 22.6667 29.1429ZM30.6667 25.5714H27.1161C26.5387 23.5129 24.7734 22 22.6667 22C20.5601 22 18.796 23.5129 18.2174 25.5714H1.33332C0.597314 25.5714 0 26.2115 0 27C0 27.7886 0.597314 28.4286 1.33332 28.4286H18.2173C18.7947 30.4871 20.56 32 22.6667 32C24.7733 32 26.5374 30.4871 27.116 28.4286H30.6667C31.404 28.4286 32 27.7886 32 27C32 26.2115 31.4041 25.5714 30.6667 25.5714Z" fill="black"/>
<path fill-rule="evenodd" clip-rule="evenodd" d="M22.6667 7.14283C21.564 7.14283 20.6667 6.18142 20.6667 4.99997C20.6667 3.81851 21.564 2.8571 22.6667 2.8571C23.7694 2.8571 24.6667 3.81851 24.6667 4.99997C24.6667 6.18142 23.7693 7.14283 22.6667 7.14283ZM30.6667 3.57141H27.116C26.5373 1.51286 24.7733 0 22.6667 0C20.5601 0 18.796 1.51286 18.2173 3.57141H1.33331C0.597313 3.57141 0 4.21139 0 4.99997C0 5.78854 0.597313 6.42852 1.33331 6.42852H18.2173C18.796 8.48714 20.56 10 22.6667 10C24.7734 10 26.5374 8.48714 27.116 6.42859H30.6667C31.404 6.42859 32 5.78861 32 5.00003C32 4.21146 31.404 3.57141 30.6667 3.57141Z" fill="black"/>
<path fill-rule="evenodd" clip-rule="evenodd" d="M9.33333 19.1429C8.23064 19.1429 7.33333 18.1815 7.33333 17C7.33333 15.8185 8.23064 14.8571 9.33333 14.8571C10.436 14.8571 11.3333 15.8185 11.3333 17C11.3333 18.1815 10.436 19.1429 9.33333 19.1429ZM30.6667 15.5714H13.7827C13.204 13.5129 11.44 12 9.33339 12C7.22676 12 5.4627 13.5129 4.88407 15.5714H1.33332C0.597314 15.5714 0 16.2114 0 17C0 17.7886 0.597314 18.4286 1.33332 18.4286H4.88401C5.4627 20.4871 7.2267 22 9.33333 22C11.44 22 13.204 20.4871 13.7827 18.4286H30.6667C31.404 18.4286 32 17.7886 32 17C32.0001 16.2114 31.4041 15.5714 30.6667 15.5714Z" fill="black"/>
</svg>
